HIERARCHY
ROOT Hips
{
	OFFSET 0.000000 0.000000 0.000000
	CHANNELS 6 Xposition Yposition Zposition Zrotation Yrotation Xrotation 
	JOINT LHipJoint
	{
		OFFSET 0.000000 0.000000 0.000000
		CHANNELS 3 Zrotation Yrotation Xrotation
		JOINT LeftUpLeg
		{
			OFFSET 1.363060 -1.794630 0.839290
			CHANNELS 3 Zrotation Yrotation Xrotation
			JOINT LeftLeg
			{
				OFFSET 2.448110 -6.726130 0.000000
				CHANNELS 3 Zrotation Yrotation Xrotation
				JOINT LeftFoot
				{
					OFFSET 2.562200 -7.039590 0.000000
					CHANNELS 3 Zrotation Yrotation Xrotation
					JOINT LeftToeBase
					{
						OFFSET 0.157640 -0.433110 2.322550
						CHANNELS 3 Zrotation Yrotation Xrotation
						End Site
						{
							OFFSET 0.000000 0.000000 0.000000
						}
					}
				}
			}
		}
	}
	JOINT RHipJoint
	{
		OFFSET 0.000000 0.000000 0.000000
		CHANNELS 3 Zrotation Yrotation Xrotation
		JOINT RightUpLeg
		{
			OFFSET -1.305520 -1.794630 0.839290
			CHANNELS 3 Zrotation Yrotation Xrotation
			JOINT RightLeg
			{
				OFFSET -2.542530 -6.985550 0.000000
				CHANNELS 3 Zrotation Yrotation Xrotation
				JOINT RightFoot
				{
					OFFSET -2.568260 -7.056230 0.000000
					CHANNELS 3 Zrotation Yrotation Xrotation
					JOINT RightToeBase
					{
						OFFSET -0.164730 -0.452590 2.363150
						CHANNELS 3 Zrotation Yrotation Xrotation
						End Site
						{
							OFFSET 0.000000 0.000000 0.000000
						}
					}
				}
			}
		}
	}
	JOINT LowerBack
	{
		OFFSET 0.000000 0.000000 0.000000
		CHANNELS 3 Zrotation Yrotation Xrotation
		JOINT Spine
		{
			OFFSET 0.028270 2.035590 -0.193380
			CHANNELS 3 Zrotation Yrotation Xrotation
			JOINT Spine1
			{
				OFFSET 0.056720 2.048850 -0.042750
				CHANNELS 3 Zrotation Yrotation Xrotation
				JOINT Neck
				{
					OFFSET 0.000000 0.000000 0.000000
					CHANNELS 3 Zrotation Yrotation Xrotation
					JOINT Neck1
					{
						OFFSET -0.054170 1.746240 0.172020
						CHANNELS 3 Zrotation Yrotation Xrotation
						JOINT Head
						{
							OFFSET 0.104070 1.761360 -0.123970
							CHANNELS 3 Zrotation Yrotation Xrotation
							End Site
							{
								OFFSET 0.000000 0.000000 0.000000
							}
						}
					}
				}
				JOINT LeftShoulder
				{
					OFFSET 0.000000 0.000000 0.000000
					CHANNELS 3 Zrotation Yrotation Xrotation
					JOINT LeftArm
					{
						OFFSET 3.362410 1.200890 -0.311210
						CHANNELS 3 Zrotation Yrotation Xrotation
						JOINT LeftForeArm
						{
							OFFSET 4.983000 -0.000000 -0.000000
							CHANNELS 3 Zrotation Yrotation Xrotation
							JOINT LeftHand
							{
								OFFSET 3.483560 -0.000000 -0.000000
								CHANNELS 3 Zrotation Yrotation Xrotation
								JOINT LeftFingerBase
								{
									OFFSET 0.000000 0.000000 0.000000
									CHANNELS 3 Zrotation Yrotation Xrotation
									JOINT LeftHandIndex1
									{
										OFFSET 0.715260 -0.000000 -0.000000
										CHANNELS 3 Zrotation Yrotation Xrotation
										End Site
										{
											OFFSET 0.000000 0.000000 0.000000
										}
									}
								}
								JOINT LThumb
								{
									OFFSET 0.000000 0.000000 0.000000
									CHANNELS 3 Zrotation Yrotation Xrotation
									End Site
									{
										OFFSET 0.000000 0.000000 0.000000
									}
								}
							}
						}
					}
				}
				JOINT RightShoulder
				{
					OFFSET 0.000000 0.000000 0.000000
					CHANNELS 3 Zrotation Yrotation Xrotation
					JOINT RightArm
					{
						OFFSET -3.136600 1.374050 -0.404650
						CHANNELS 3 Zrotation Yrotation Xrotation
						JOINT RightForeArm
						{
							OFFSET -5.241900 -0.000000 -0.000000
							CHANNELS 3 Zrotation Yrotation Xrotation
							JOINT RightHand
							{
								OFFSET -3.444170 -0.000000 -0.000000
								CHANNELS 3 Zrotation Yrotation Xrotation
								JOINT RightFingerBase
								{
									OFFSET 0.000000 0.000000 0.000000
									CHANNELS 3 Zrotation Yrotation Xrotation
									JOINT RightHandIndex1
									{
										OFFSET -0.622530 -0.000000 -0.000000
										CHANNELS 3 Zrotation Yrotation Xrotation
										End Site
										{
											OFFSET 0.000000 0.000000 0.000000
										}
									}
								}
								JOINT RThumb
								{
									OFFSET 0.000000 0.000000 0.000000
									CHANNELS 3 Zrotation Yrotation Xrotation
									End Site
									{
										OFFSET 0.000000 0.000000 0.000000
									}
								}
							}
						}
					}
				}
			}
		}
	}
}
MOTION
Frames: 12
Frame Time: 0.008333
-29.897567 17.447864 1.177607 79.240374 86.596627 70.852131 1.751858 -1.179754 0.238334 -15.637796 5.348929 9.551509 -1.498810 4.023639 10.524384 -0.847181 9.429241 -11.753698 0.704200 -5.363700 -14.948700 -3.898291 6.704502 -8.277411 8.044059 -10.622490 24.857093 -0.330242 -2.087734 2.366533 -0.379474 -2.693572 -15.126912 -0.021800 0.953800 -2.621700 -1.261072 1.323664 12.737282 0.591593 2.121301 -0.598741 -1.290316 0.784662 6.224839 0.201258 1.763799 -20.962619 5.421620 1.848622 4.726934 -0.728200 1.039900 8.777100 6.666981 -0.704552 0.350204 -91.415564 -5.057014 41.719414 11.517456 -21.031071 -2.416692 -0.227117 0.742993 11.622770 16.840258 -23.757623 -7.298400 -7.125000 0.000000 0.000000 -7.468300 4.740900 6.885400 -6.331779 1.042531 1.918611 88.472285 2.667371 47.031643 -17.882727 32.484292 -4.583874 0.696445 -2.846222 1.372499 -6.485728 -39.524679 4.369800 7.125000 0.000000 0.000000 33.145100 -63.788200 -15.954100 
-29.883719 17.444684 1.147346 77.913027 86.463299 69.484163 1.778182 -1.203692 0.227590 -15.861642 5.534937 9.785821 -1.515943 3.929852 10.264037 -0.836553 9.396850 -11.759899 0.689300 -5.307900 -14.788700 -3.834184 6.683196 -8.286494 7.977596 -10.227784 25.122381 -0.324322 -2.058325 2.350647 -0.367777 -3.101329 -15.354204 -0.050700 1.453300 -3.997000 -1.493209 1.380002 12.567851 0.551091 2.183948 -0.583055 -1.323999 0.810918 6.373890 0.241220 1.773331 -21.128104 5.295554 1.854377 4.868884 -0.805300 1.036000 8.885300 6.669811 -0.700710 0.347141 -91.365755 -5.054350 41.841332 11.594653 -21.147792 -2.444139 -0.250663 0.739557 11.554444 17.553519 -23.451298 -7.535400 -7.125000 0.000000 0.000000 -6.991700 4.952600 6.410900 -6.335288 1.031936 1.914196 88.606936 2.611376 47.159188 -17.845937 32.445905 -4.548220 0.640290 -2.820491 1.597212 -7.429226 -38.410379 4.783900 7.125000 0.000000 0.000000 30.935300 -63.117000 -14.299900 
-29.866999 17.441915 1.117495 77.921030 85.995774 69.335866 1.777471 -1.236936 0.224438 -16.544721 5.631686 10.271220 -1.559826 3.807203 9.875449 -0.834916 9.515706 -11.941722 0.653400 -5.170500 -14.395600 -3.730256 6.721571 -8.303080 7.254486 -10.046765 25.580943 -0.316981 -1.958747 2.196668 -0.368045 -3.178808 -15.395750 -0.081200 1.837700 -5.057200 -2.059030 1.492092 12.533774 0.464897 2.302118 -0.581285 -1.377621 0.871431 6.407807 0.325880 1.742236 -21.210127 5.226685 1.791696 5.028381 -0.871600 1.013200 8.991500 6.657776 -0.701182 0.337517 -91.204882 -5.045212 41.672402 11.670779 -21.262204 -2.474052 -0.237562 0.737599 11.033915 16.883384 -23.685673 -7.297600 -7.125000 0.000000 0.000000 -7.434800 4.811200 6.844100 -6.351589 1.053498 1.917375 88.848467 2.363439 47.080259 -17.877159 32.473995 -4.532165 0.387724 -2.732844 1.882588 -11.968319 -35.098092 6.742500 7.125000 0.000000 0.000000 23.147800 -61.347200 -9.498900 
-29.854382 17.441504 1.089389 77.436730 85.507264 68.646061 1.789660 -1.279290 0.211388 -17.276187 5.715477 10.792974 -1.603127 3.694353 9.515910 -0.833368 9.666000 -12.220226 0.582200 -4.885800 -13.583300 -3.615586 6.788467 -8.304065 6.157268 -10.311533 25.846013 -0.314143 -1.916074 2.162186 -0.380487 -2.699671 -15.034367 -0.108500 2.123700 -5.847800 -2.643303 1.598058 12.629611 0.374147 2.416810 -0.578461 -1.423328 0.931170 6.364229 0.345180 1.716162 -21.206574 5.220329 1.751840 5.052170 -0.885700 0.997900 9.006900 6.634547 -0.708994 0.332953 -91.114618 -5.174419 41.677701 11.618066 -21.179200 -2.454163 -0.235460 0.728801 10.901702 16.655486 -23.385887 -7.109800 -7.125000 0.000000 0.000000 -7.555900 5.157000 6.907800 -6.366662 1.079111 1.927729 89.039439 2.131763 47.332460 -17.985308 32.627783 -4.597697 0.578034 -2.831084 1.430546 -8.816202 -38.110288 5.517000 7.125000 0.000000 0.000000 29.195900 -63.182200 -13.466500 
-29.853253 17.440684 1.054102 74.333695 85.097510 65.467404 1.836135 -1.361123 0.175741 -17.822256 6.085148 10.956759 -1.619203 3.646284 9.350251 -0.816275 9.679012 -12.449402 0.488600 -4.481900 -12.436500 -3.499989 6.808955 -8.274588 5.083711 -10.644150 25.554734 -0.324793 -2.026169 2.508122 -0.401883 -1.880900 -14.511090 -0.130900 2.332100 -6.424500 -3.054638 1.679795 12.655625 0.310602 2.514761 -0.573674 -1.402557 0.968756 6.339578 0.164650 1.789971 -21.165454 5.244580 1.908192 4.984745 -0.814400 1.058000 8.961700 6.615680 -0.720973 0.336023 -91.204925 -5.312483 41.406084 11.534637 -21.052802 -2.424553 -0.215155 0.725224 10.964992 15.934951 -23.421078 -6.795800 -7.125000 0.000000 0.000000 -8.015100 5.225800 7.325400 -6.380327 1.078242 1.933418 89.047310 2.095086 47.803834 -18.010333 32.663069 -4.618887 0.696552 -2.881726 0.884242 -6.914615 -39.859809 4.646100 7.125000 0.000000 0.000000 33.078200 -64.132500 -16.182000 
-29.863819 17.439966 1.006402 67.331491 84.846937 58.422320 1.926955 -1.504183 0.101139 -18.142015 6.545303 11.120022 -1.631984 3.573714 9.173612 -0.840023 9.957437 -12.763566 0.451300 -4.309700 -11.949500 -3.400813 6.703281 -8.207226 4.509813 -10.694067 24.846171 -0.352474 -2.267316 3.168467 -0.426441 -0.940196 -14.057690 -0.151500 2.508400 -6.913000 -2.985608 1.852424 12.779173 0.251784 2.768408 -0.581360 -1.599194 1.098637 6.205267 0.143839 1.879750 -21.090872 5.155881 2.024891 4.929226 -0.832000 1.096400 8.926400 6.622260 -0.762475 0.341672 -91.226395 -5.279317 41.337287 11.549234 -21.057289 -2.429229 -0.209383 0.739820 11.348317 16.067533 -23.876076 -6.978200 -7.125000 0.000000 0.000000 -7.964800 4.732900 7.353300 -6.391517 1.067546 1.933987 89.133172 2.044434 47.565708 -17.914889 32.602677 -4.613081 0.941307 -2.934565 1.518691 -1.711351 -41.704642 1.745300 7.125000 0.000000 0.000000 40.497900 -64.257900 -20.472500 
-29.853458 17.445813 0.971936 65.724230 85.081458 56.610941 1.974348 -1.510464 0.082170 -17.976792 6.606004 11.574842 -1.639541 3.450177 8.898273 -0.858641 10.058554 -12.671722 0.503300 -4.547800 -12.623200 -3.387751 6.656309 -8.204915 4.866131 -10.519582 25.156196 -0.348182 -2.243818 3.076704 -0.416029 -1.150558 -14.082957 -0.164700 2.614800 -7.208100 -2.677058 1.845982 12.920495 0.223331 2.788386 -0.573004 -1.894081 1.134725 6.198129 0.264998 1.859852 -21.156580 5.147072 1.962533 5.002447 -0.857200 1.078700 8.985300 6.621959 -0.770296 0.338139 -91.090540 -5.326963 41.065114 11.667179 -21.214783 -2.473949 -0.181753 0.743772 10.786372 14.958628 -24.461372 -6.619600 -7.125000 0.000000 0.000000 -8.704100 4.290100 8.124700 -6.421911 1.084019 1.934628 89.490639 1.951956 46.777131 -17.792611 32.487589 -4.523463 0.609604 -2.837856 2.796012 -7.438155 -37.447214 4.692500 7.125000 0.000000 0.000000 29.837700 -62.309800 -13.178000 
-29.843303 17.435555 0.944137 60.955739 85.177881 52.122156 2.005287 -1.597095 0.048252 -17.741724 6.795714 11.521037 -1.647411 3.313709 8.591793 -0.894329 10.235466 -12.561158 0.559400 -4.790700 -13.312500 -3.400836 6.507409 -8.154072 5.267213 -10.153979 24.738420 -0.368120 -2.282923 3.151367 -0.413897 -1.070548 -14.002143 -0.135800 2.375400 -6.544300 -2.526440 1.830001 12.476159 0.239774 2.767527 -0.627065 -1.864696 1.103160 6.213191 0.068011 1.907941 -20.960602 5.202390 2.090244 5.055040 -0.768800 1.135700 8.958700 6.630442 -0.784420 0.337461 -91.144282 -5.000746 41.578390 11.801703 -21.415812 -2.518557 -0.248437 0.737440 11.458134 17.372669 -23.456802 -7.455000 -7.125000 0.000000 0.000000 -7.106000 4.975600 6.514300 -6.436120 1.062617 1.930758 89.525818 1.731309 46.829778 -17.724722 32.401524 -4.476454 0.473342 -2.786007 2.571005 -10.055220 -35.618675 5.835700 7.125000 0.000000 0.000000 25.478900 -61.350600 -10.525700 
-29.842380 17.442735 0.913671 57.896094 84.886406 48.809197 2.020984 -1.680317 0.016890 -17.908377 7.275487 11.926630 -1.655363 3.197793 8.297519 -0.901185 10.356289 -12.665027 0.523200 -4.635800 -12.872600 -3.357571 6.429107 -8.144001 5.120398 -9.806543 24.947511 -0.373569 -2.274444 3.179804 -0.418242 -0.955018 -13.962708 -0.107200 2.111100 -5.812800 -2.697204 1.969339 12.734779 0.186761 2.959166 -0.623421 -1.993424 1.202259 6.076215 0.160669 1.904966 -20.910672 5.178737 2.053303 5.084938 -0.802700 1.124100 8.977000 6.634995 -0.813840 0.331218 -91.051430 -5.126431 41.633449 12.068347 -21.777623 -2.615155 -0.218662 0.688857 10.224522 15.449218 -22.360536 -6.299900 -7.125000 0.000000 0.000000 -8.255500 6.398800 7.362700 -6.456337 1.078804 1.933810 89.763212 1.635751 46.768569 -17.597586 32.279085 -4.429259 0.434806 -2.793341 1.663051 -11.244082 -35.191577 6.371800 7.125000 0.000000 0.000000 23.904500 -61.214500 -9.753900 
-29.838174 17.441197 0.873050 56.840500 84.770041 47.709657 2.023350 -1.720922 0.011109 -17.986898 7.677013 11.919923 -1.645250 3.186275 8.262026 -0.855538 10.119332 -12.782055 0.435700 -4.235800 -11.741000 -3.328847 6.399083 -8.140983 4.990734 -9.598006 24.978230 -0.375941 -2.275130 3.222039 -0.422192 -0.976627 -14.033596 -0.109400 2.132400 -5.871600 -2.678135 2.000212 12.692293 0.139997 3.006027 -0.628489 -2.190614 1.238510 6.111244 0.161784 1.911212 -21.048086 5.164843 2.070557 5.195182 -0.797500 1.136200 9.071400 6.629035 -0.808449 0.322907 -91.014862 -5.191635 41.691071 12.167441 -21.902703 -2.650057 -0.215183 0.676604 9.839427 15.061162 -22.067526 -6.058900 -7.125000 0.000000 0.000000 -8.487100 6.755900 7.514700 -6.485408 1.084996 1.928238 89.933803 1.674121 46.671454 -17.457413 32.163494 -4.383002 0.432815 -2.809745 1.219732 -11.475207 -35.168818 6.478600 7.125000 0.000000 0.000000 23.645700 -61.225100 -9.647400 
-29.825352 17.441709 0.840840 55.968019 84.784914 46.804255 2.032837 -1.742070 0.001753 -17.983046 7.843281 12.073554 -1.645124 3.131911 8.130515 -0.825056 9.968464 -12.883076 0.368600 -3.899700 -10.794700 -3.316993 6.378805 -8.139513 4.970357 -9.536231 25.056908 -0.374243 -2.268814 3.209026 -0.420969 -1.027714 -14.057267 -0.120300 2.236000 -6.158400 -2.661194 1.968819 12.508349 0.131491 2.968342 -0.617851 -2.229542 1.216198 6.242935 0.076548 1.953980 -21.051459 5.091537 2.158776 5.309050 -0.805700 1.167300 9.123200 6.628532 -0.803528 0.324521 -91.062039 -5.177239 41.656560 12.187761 -21.937331 -2.658085 -0.214494 0.676426 9.661493 14.900138 -22.176119 -6.019000 -7.125000 0.000000 0.000000 -8.595200 6.666500 7.627800 -6.487404 1.063058 1.927774 89.975295 1.647953 46.595661 -17.421050 32.145405 -4.374909 0.437602 -2.818296 1.159875 -11.388592 -35.324830 6.458200 7.125000 0.000000 0.000000 23.866400 -61.337700 -9.807300 
-29.815915 17.435965 0.806989 55.904303 84.673730 46.817936 2.034859 -1.751292 -0.007065 -18.410666 7.461307 12.390939 -1.697288 2.990625 7.720330 -0.864996 10.351691 -13.178538 0.308900 -3.573200 -9.878900 -3.279556 6.386640 -8.139701 4.708449 -9.451970 25.065367 -0.373540 -2.222999 3.126822 -0.418540 -1.087892 -14.049087 -0.132700 2.347800 -6.468000 -2.753481 1.990058 12.253815 0.090773 2.987950 -0.622714 -2.330872 1.235166 6.316889 0.040453 1.981757 -20.858042 5.144901 2.198430 5.197848 -0.761400 1.185500 9.000500 6.612611 -0.799006 0.332889 -91.032132 -5.234156 41.618910 12.112829 -21.835283 -2.630424 -0.218282 0.681927 9.663352 14.991767 -22.372708 -6.108800 -7.125000 0.000000 0.000000 -8.546000 6.451200 7.619000 -6.505482 1.051064 1.940706 90.128186 1.543416 46.234392 -17.412400 32.185588 -4.393106 0.423377 -2.837912 1.344213 -11.504759 -35.670162 6.577900 7.125000 0.000000 0.000000 24.042200 -61.657600 -10.067100 
